<svg xmlns="http://www.w3.org/2000/svg" width="200" height="200" viewBox="0 0 200 200">
  <defs>
    <style>
      .cls-1 {
        stroke: #000;
        stroke-width: 8px;
      }

      .cls-1, .cls-2 {
        fill-rule: evenodd;
      }

      .cls-2 {
        fill: #fff;
      }
    </style>
  </defs>
  <path class="cls-1" d="M7,8H193V191H7V8Z"/>
  <path id="EXIT" class="cls-2" d="M64.791,121.551v-6.082H33.15V97.926H61.662V91.879H33.15V76.094H63.6V70.012H26.33v51.539H64.791Zm12.375,0L90.1,103.586q0.738-1.055,2.461-3.867,1.16,1.864,2.25,3.445l12.973,18.387h8.438L96.713,94.305l18.105-24.293H107.4L97.029,83.688a67.167,67.167,0,0,0-4.078,5.871A75.32,75.32,0,0,0,88.8,83.231L79.451,70.012H71.33l17.578,24.68L68.975,121.551h8.191Zm53.051,0V70.012H123.4v51.539h6.821Zm31.957,0V76.094h17.051V70.012H138.373v6.082h16.981v45.457h6.82Z"/>
</svg>
